<svg xmlns="http://www.w3.org/2000/svg" viewBox="0 0 512 512" fill="none">
    <rect width="512" height="512" rx="120" fill="url(#bg)" />
    <rect x="44" y="44" width="424" height="424" rx="96" fill="rgba(255,255,255,0.08)"
        stroke="rgba(255,255,255,0.22)" stroke-width="10" />
    <circle cx="256" cy="256" r="132" fill="rgba(255,255,255,0.16)" stroke="rgba(255,255,255,0.45)"
        stroke-width="12" />
    <path d="M192 144C224 184 240 220 240 256C240 292 224 328 192 368" stroke="white"
        stroke-opacity="0.9" stroke-width="16" stroke-linecap="round" />
    <path d="M320 144C288 184 272 220 272 256C272 292 288 328 320 368" stroke="white"
        stroke-opacity="0.9" stroke-width="16" stroke-linecap="round" />
    <path d="M146 218C190 230 226 246 256 266C286 286 310 320 332 364" stroke="white"
        stroke-opacity="0.78" stroke-width="14" stroke-linecap="round" />
    <path d="M366 218C322 230 286 246 256 266C226 286 202 320 180 364" stroke="white"
        stroke-opacity="0.78" stroke-width="14" stroke-linecap="round" />
    <defs>
        <linearGradient id="bg" x1="64" y1="48" x2="444" y2="468" gradientUnits="userSpaceOnUse">
            <stop stop-color="#22D3EE" />
            <stop offset="0.52" stop-color="#0F172A" />
            <stop offset="1" stop-color="#F97316" />
        </linearGradient>
    </defs>
</svg>